<svg xmlns="http://www.w3.org/2000/svg"  viewBox="0 0 64 64" width="64px" height="64px"><path fill="#c5e4fa" d="M31 3A28 28 0 1 0 31 59A28 28 0 1 0 31 3Z"/><path fill="#e3f2ff" d="M12.71 52.29a28 28 0 0 0 9.18 5.82L56 24V17.57a28.1 28.1 0 0 0-3.71-4.86zM10.76 50.24L50 11H44L8.22 46.78A28.08 28.08 0 0 0 10.76 50.24zM7.79 43.21L41 10 38 8 6.36 39.64A27.81 27.81 0 0 0 7.79 43.21z"/><path fill="#72caaf" d="M31,3A28,28,0,1,0,59,31,28,28,0,0,0,31,3Zm0,50A22,22,0,1,1,46.17,15.07l.68.67q.39.4.75.82A22,22,0,0,1,31,53Z"/><path fill="#66bfa1" d="M31,53A22,22,0,0,1,9,31H7.34a4,4,0,0,0-3.95,4.71,28,28,0,0,0,55.21,0A4,4,0,0,0,54.66,31H53A22,22,0,0,1,31,53Z"/><path fill="#faefde" d="M41.65,26.76A1,1,0,0,0,42,26V19a1,1,0,0,0-.84-1l-12-2a1,1,0,0,0-.81.22A1,1,0,0,0,28,17V30.22A9,9,0,0,0,26,30c-4.41,0-8,3.14-8,7s3.59,7,8,7,8-3.14,8-7V25.85L40.84,27A1,1,0,0,0,41.65,26.76Z"/><path fill="#8d6c9f" d="M31,2A29,29,0,1,0,60,31,29,29,0,0,0,31,2Zm0,56A27,27,0,1,1,58,31,27,27,0,0,1,31,58Z"/><path fill="#8d6c9f" d="M31 50a1 1 0 0 0-1 1v2a1 1 0 0 0 2 0V51A1 1 0 0 0 31 50zM37 50.08a1 1 0 0 0-1.93.52l.52 1.93A1 1 0 0 0 37.53 52zM21.75 47.52a1 1 0 0 0-1.37.37l-1 1.73a1 1 0 0 0 1.73 1l1-1.73A1 1 0 0 0 21.75 47.52zM41.62 47.89a1 1 0 0 0-1.73 1l1 1.73a1 1 0 1 0 1.73-1zM26.21 49.37a1 1 0 0 0-1.22.71L24.47 52a1 1 0 1 0 1.93.52l.52-1.93A1 1 0 0 0 26.21 49.37zM41.65 26.76A1 1 0 0 0 42 26V19a1 1 0 0 0-.84-1l-12-2a1 1 0 0 0-.81.22A1 1 0 0 0 28 17V30.22A9 9 0 0 0 26 30c-4.41 0-8 3.14-8 7s3.59 7 8 7 8-3.14 8-7V25.85L40.84 27A1 1 0 0 0 41.65 26.76zM40 24.82l-6.84-1.14a1 1 0 0 0-1.16 1V37c0 2.76-2.69 5-6 5s-6-2.24-6-5 2.69-5 6-5a6.91 6.91 0 0 1 2.62.51A1 1 0 0 0 30 31.58V18.18l10 1.67zM38.35 11.32a21.1 21.1 0 0 1 2.1.92 1 1 0 0 0 .45.11 1 1 0 0 0 .45-1.89 22.71 22.71 0 0 0-2.3-1 1 1 0 0 0-.7 1.87z"/><path fill="#8d6c9f" d="M16.15 16.15a21.07 21.07 0 0 1 18.19-5.88 1 1 0 1 0 .32-2 23 23 0 0 0-19.92 39 1 1 0 0 0 1.41-1.41A21 21 0 0 1 16.15 16.15zM47.26 14.74a23.16 23.16 0 0 0-2.09-1.86 1 1 0 1 0-1.23 1.57 21.27 21.27 0 0 1 1.91 1.7 21 21 0 0 1 0 29.7 1 1 0 1 0 1.41 1.41A23 23 0 0 0 47.26 14.74z"/></svg>